<?xml version="1.0" encoding="UTF-8"?>
<!DOCTYPE svg PUBLIC "-//W3C//DTD SVG 1.1//EN" "http://www.w3.org/Graphics/SVG/1.1/DTD/svg11.dtd">
<!-- Creator: CorelDRAW 2021.5 -->
<svg xmlns="http://www.w3.org/2000/svg" xml:space="preserve" width="250px" height="250px" version="1.1" style="shape-rendering:geometricPrecision; text-rendering:geometricPrecision; image-rendering:optimizeQuality; fill-rule:evenodd; clip-rule:evenodd" viewBox="0 0 250 250" xmlns:xlink="http://www.w3.org/1999/xlink" xmlns:xodm="http://www.corel.com/coreldraw/odm/2003">
 <defs>
  <style type="text/css">
   <![CDATA[
    .fil0 {fill:#8a78a2}
   ]]>
  </style>
 </defs>
 <g id="Слой_x0020_1">
  <metadata id="CorelCorpID_0Corel-Layer"/>
  <path class="fil0" d="M62.005 218.832c9.235,5.277 20.449,-1.319 29.024,-4.617 23.087,-7.916 60.027,-21.109 81.135,-30.344 7.915,-2.638 11.873,-11.873 17.15,-20.448 16.491,-28.364 24.406,-32.982 8.575,-48.153 -5.937,-6.597 -11.873,-12.533 -18.469,-18.47 -5.937,-6.596 -11.874,-12.533 -18.47,-19.129 -2.639,-2.639 -5.937,-6.596 -10.554,-7.256 -7.256,-1.979 -10.554,0.66 -14.512,3.298 -7.916,4.617 -15.831,9.235 -23.747,13.852 -7.256,4.618 -17.15,7.916 -20.448,16.491l-29.684 81.794c-3.298,9.235 -9.894,18.47 -4.617,28.365 2.638,-0.66 7.256,-5.937 9.235,-7.916l59.366 -60.027c-1.978,-17.809 19.79,-9.234 13.193,1.32 -2.638,3.957 -5.277,1.979 -9.235,3.298l-17.81 16.491c-3.958,4.617 -48.812,48.153 -50.132,51.451zm-62.005 -48.153l0 11.214c1.979,3.298 0.66,13.192 11.873,25.725 5.277,5.937 13.193,11.214 23.087,14.512 22.428,6.596 19.13,-8.575 12.533,-10.554 -5.936,-1.979 -9.234,-1.319 -15.171,-3.958 -3.958,-2.638 -7.256,-4.617 -10.554,-7.915 -6.596,-7.256 -9.895,-15.172 -8.576,-29.024 2.639,-32.322 27.046,-50.132 32.982,-79.156 3.958,-17.81 0,-46.834 -14.512,-58.048 -3.298,-1.978 -9.894,-5.276 -14.512,-4.617 -4.617,0.66 -7.915,7.256 -3.298,11.214 3.958,3.298 6.597,0 12.533,5.937 8.575,9.894 9.895,32.321 6.596,45.514 -2.638,11.873 -6.596,17.15 -11.873,25.726 -20.448,30.343 -18.47,49.472 -21.108,53.43zm250 -83.774l0 -5.936 -54.749 -54.749 -5.277 0c-5.937,3.298 -32.982,30.343 -34.301,32.981 3.298,4.618 58.707,59.367 61.346,60.686 3.298,-1.319 20.448,-19.789 25.066,-24.406l7.915 -8.576z"/>
 </g>
</svg>