<?xml version="1.0" encoding="UTF-8"?>
<!DOCTYPE svg PUBLIC "-//W3C//DTD SVG 1.1//EN" "http://www.w3.org/Graphics/SVG/1.1/DTD/svg11.dtd">
<!-- Creator: CorelDRAW 2021.5 -->
<svg xmlns="http://www.w3.org/2000/svg" xml:space="preserve" width="250px" height="250px" version="1.1" style="shape-rendering:geometricPrecision; text-rendering:geometricPrecision; image-rendering:optimizeQuality; fill-rule:evenodd; clip-rule:evenodd" viewBox="0 0 250 250" xmlns:xlink="http://www.w3.org/1999/xlink" xmlns:xodm="http://www.corel.com/coreldraw/odm/2003">
 <defs>
  <style type="text/css">
   <![CDATA[
    .fil0 {fill:#8a78a2}
   ]]>
  </style>
 </defs>
 <g id="Слой_x0020_1">
  <metadata id="CorelCorpID_0Corel-Layer"/>
  <path class="fil0" d="M0 226.04l0 6.696 6.697 0c2.232,-1.116 24.553,-6.138 29.017,-7.254 5.022,-1.117 10.045,-2.233 15.067,-3.349 8.371,-2.232 6.697,-1.116 11.719,-6.138 6.138,-6.138 12.277,-11.719 18.415,-17.857 26.786,-26.786 55.246,-54.688 81.473,-82.032 2.791,-2.79 6.697,-6.138 8.929,-8.928 -2.79,-3.349 -7.813,-8.371 -11.161,-11.719 -5.58,-5.022 -31.808,-31.808 -34.598,-34.04l-45.201 45.759c-1.674,1.116 -3.348,2.79 -4.464,4.464l-50.223 49.665c-1.674,1.674 -2.791,2.79 -4.465,4.465 -8.928,8.928 -8.37,6.138 -10.602,16.741 -1.116,5.022 -2.233,9.486 -3.349,14.509 -1.116,4.464 -5.58,26.227 -7.254,29.018zm240.513 6.696l9.487 0 0 -9.487 0 -2.79c-2.232,-3.348 -1.674,-5.022 -5.022,-7.254 -3.348,-2.232 -5.581,-2.232 -10.603,-2.232 -8.371,0 -17.299,0 -25.67,0 -16.741,0 -34.04,0 -50.781,0 -16.741,0 -34.04,0 -50.781,0 -8.929,0 -16.183,-0.559 -18.974,6.696 -1.673,3.348 -1.116,6.696 0.559,10.045 2.232,3.348 4.464,3.348 7.812,5.022l143.973 0zm-99.33 -186.942l45.759 45.759c1.674,-1.116 23.995,-23.438 25.67,-25.67 9.486,-16.741 -2.232,-26.228 -11.161,-34.598 -3.348,-3.906 -8.371,-9.487 -13.393,-12.277 -6.696,-2.79 -15.625,-2.232 -20.647,1.674 -3.907,2.232 -22.322,21.206 -26.228,25.112z"/>
 </g>
</svg>